# xmcd
#
# Track frame offsets:
#	183
#	14285
#	26503
#	41260
#	53775
#	66600
#	80373
#	94483
#	107448
#	120205
#	133105
#	146198
#	160745
#	179420
#	191010
#	205235
#	218563
#	230955
#
# Disc length: 3262 seconds
#
# Revision: 4
# Processed by: cddbd v1.5.2PL0 Copyright (c) Steve Scherf et al.
# Submitted via: audiograbber 1.83.01
#
DISCID=000cbc12
DTITLE=Muddy Waters - The Ultimate Collection
DYEAR=1992
DGENRE=Blues
TTITLE0=Rolling Stone
TTITLE1=I can' t be satisfied
TTITLE2=Baby please don' t go
TTITLE3=Hoochie Coochie Man
TTITLE4=I just want to make Love to you
TTITLE5=I' m ready
TTITLE6=Smokestack Lightnin'
TTITLE7=Forty Days and forty Nights
TTITLE8=I love the Life I live
TTITLE9=Got my Mojo Working
TTITLE10=Southbound Train
TTITLE11=Good Morning little Schoolgirl
TTITLE12=Going down slow
TTITLE13=Gypsy Woman
TTITLE14=I feel like going Home
TTITLE15=Walkin' Blues
TTITLE16=You shook me
TTITLE17=Lonesome Road Blues
EXTD=
EXTT0=
EXTT1=
EXTT2=
EXTT3=
EXTT4=
EXTT5=
EXTT6=
EXTT7=
EXTT8=
EXTT9=
EXTT10=
EXTT11=
EXTT12=
EXTT13=
EXTT14=
EXTT15=
EXTT16=
EXTT17=
PLAYORDER=
